<svg width="20" height="17" viewBox="0 0 20 17" fill="none" xmlns="http://www.w3.org/2000/svg">
<path d="M19.999 2.01809C19.25 2.36448 18.4557 2.59196 17.6423 2.69303C18.4996 2.15701 19.1412 1.31342 19.4476 0.319468C18.6431 0.820029 17.761 1.17083 16.8416 1.36059C16.2241 0.66984 15.4056 0.211727 14.5133 0.0574768C13.6211 -0.0967719 12.705 0.0614844 11.9077 0.50764C11.1103 0.953796 10.4763 1.66286 10.1041 2.52459C9.73194 3.38633 9.64266 4.35245 9.84988 5.27277C8.21832 5.18727 6.62219 4.74402 5.16512 3.97178C3.70805 3.19954 2.42262 2.11559 1.39227 0.790283C1.02756 1.44517 0.835902 2.18963 0.836932 2.94741C0.836932 4.43474 1.56103 5.74871 2.66189 6.51801C2.01041 6.49657 1.37326 6.31264 0.803573 5.98155V6.03489C0.803769 7.02545 1.13164 7.98545 1.7316 8.75214C2.33156 9.51882 3.16668 10.045 4.09537 10.2414C3.49059 10.4128 2.85647 10.438 2.24098 10.3152C2.50282 11.1679 3.01316 11.9136 3.70054 12.448C4.38793 12.9823 5.21795 13.2784 6.07438 13.295C5.2232 13.994 4.24861 14.5105 3.20632 14.8154C2.16403 15.1202 1.0745 15.2073 0 15.0716C1.87569 16.3328 4.05916 17.0023 6.28925 17C13.8373 17 17.9651 10.463 17.9651 4.79374C17.9651 4.60911 17.9602 4.42243 17.9523 4.23985C18.7558 3.63278 19.4492 2.88076 20 2.01912L19.999 2.01809Z" fill="#F9512E"/>
</svg>
